<svg xmlns="http://www.w3.org/2000/svg" width="1080" height="804"><path fill="#FEFEFE" d="M0 0h1080v804H0z"/><path fill="#FCFDFD" d="M250 237h221v277H250z"/><path fill="#FBFCFC" d="M457 251v250H264v-1h192v-43h-4v30l-4 1v-4h2c.13-4.734.186-9.461.177-14.197q.01-2.412.08-4.824c.143-5.189.1-9.945-1.257-14.979-3.313-3.201-6.695-4.527-11-6a131 131 0 0 1-5-4c-2.387-1.57-4.79-3.11-7.207-4.633L424 434v-2l-1.746-.312c-2.624-.8-4.182-1.977-6.317-3.688-2.433-1.943-3.94-3.001-6.937-4v-2l-2.187-.75c-3.064-1.361-5.226-3.14-7.813-5.25l-3-1v-2l-2.125-.75c-3.245-1.41-5.978-3.229-8.875-5.25a56.5 56.5 0 0 1 4-7h2l.75-2.187C393 395 393 395 394.938 392.683c6.914-8.997 7.34-21.782 6.062-32.683-2.07-9.563-7.623-17.713-14-25l-2-1c1.513-4.237 4.25-5.721 8-8l2.75-1.75C398 323 398 323 400 323v-2c2.117-1.508 2.117-1.508 4.875-3.125l2.742-1.633C410 315 410 315 412 315v-2c2.23-1.656 2.23-1.656 5.188-3.5l2.917-1.844A50 50 0 0 1 428 304v-2a100 100 0 0 1 6.063-3.812c3.808-2.27 7.562-4.543 11.125-7.188 2.812-2 2.812-2 4.812-2v-34c-3.726 1.863-6.885 3.464-10.25 5.75l-2.316 1.563a303 303 0 0 0-5.024 3.562c-8.143 5.877-8.143 5.877-13.41 7.125v2c-2.641 1.92-5.247 3.634-8.187 5.063-1.855.834-1.855.834-3.102 2.289-2.115 2.038-4.395 3.425-6.899 4.96-4.263 2.655-8.257 5.458-12.156 8.622C387 297 387 297 384 297l-1 3c-2.152 1.578-2.152 1.578-4.937 3.25-4.804 2.92-9.262 6.085-13.676 9.563-3.259 1.62-4.929 1.196-8.387.187-2.676-1.418-2.676-1.418-5.312-3.187l-2.875-1.91L345 306l-2.5-1.621c-3.36-2.185-6.592-4.38-9.625-7.004-3.157-2.608-6.28-4.434-9.875-6.375v-2l-2.625-.687c-3.876-1.508-6.226-3.623-9.375-6.313-1.97-1.058-3.963-2.078-6-3v-2l-2.105-.75c-3.335-1.44-6.183-3.24-9.207-5.25l-3.239-2.125L288 267v-2l-2.5-.625c-4.398-1.728-8.143-4.026-11.5-7.375a120 120 0 0 1-2-5 1412610 1412610 0 0 1 123.678-.731l32.422-.192 6.725-.039 3.782-.022c6.13-.022 12.262-.016 18.393-.016"/><path fill="#339CCE" d="M268 254c3.333.75 5.504 1.842 8.313 3.813 3.802 2.612 7.651 4.954 11.687 7.187v2l2.176.777c2.995 1.297 5.372 2.872 8.012 4.786 3.29 2.409 3.29 2.409 6.812 4.437v2l2.5.625c3.794 1.49 6.418 3.405 9.57 5.938 1.905 1.418 3.81 2.384 5.93 3.437l4 4q2.49 1.517 5 3a301 301 0 0 1 4.438 3.125 564 564 0 0 0 12.812 8.75l1.752 1.192c3.64 2.381 6.61 3.904 10.998 3.933 2.743-1.394 2.743-1.394 5.25-3.562 4.45-3.481 8.935-6.435 13.852-9.211 2.043-1.092 2.043-1.092 2.898-3.227a296 296 0 0 1 4.629-2.586c3.73-2.224 7.237-4.78 10.75-7.328 2.29-1.628 4.206-2.982 6.953-3.668L408 283l1-3c3.154-2.19 6.41-3.666 10-5v-2l2.664-1.258c3.17-1.655 5.86-3.468 8.711-5.617 6.408-4.73 12.028-8.652 19.625-11.125.223 4.732.386 9.46.494 14.197q.068 2.413.185 4.824c.632 13.344.632 13.344-2.514 17.268-2.328 1.554-4.58 2.648-7.165 3.711l-3.215 2.117-2.723 1.758-2.777 1.805C430 302 430 302 428 302v2c-2.23 1.656-2.23 1.656-5.187 3.5l-2.918 1.844A50 50 0 0 1 412 313v2c-2.117 1.508-2.117 1.508-4.875 3.125l-2.742 1.633C402 321 402 321 400 321v2c-1.54 1.148-1.54 1.148-3.625 2.375l-2.2 1.324L392 328c-4.135 2.367-4.135 2.367-7 6l3 1c10.326 10.963 14.663 22.713 14.313 37.629-.518 9.87-3.753 18.04-10.313 25.371q-1.69 1.935-3.375 3.875l-1.523 1.68c-1.304 1.407-1.304 1.407-1.102 3.445 2.254 1.52 2.254 1.52 5 3 2.813 1.563 2.813 1.563 5 3v2l1.703.316c2.72.81 4.69 2.046 7.047 3.622l2.422 1.59L409 422v2l1.746.313c2.624.8 4.182 1.976 6.317 3.687 2.433 1.943 3.94 3.001 6.937 4v2l2.176.766c3.055 1.335 5.362 2.965 8.012 4.984 3.948 3.04 3.948 3.04 8.382 5.243 3.154 1.359 5.11 2.453 7.43 5.007 1.275 5.826.945 11.453.625 17.375q-.075 2.415-.137 4.832c-.11 3.935-.282 7.862-.488 11.793-2.922-.682-5.043-1.481-7.562-3.125a342 342 0 0 0-7.403-4.691L432 474.312c-.949-.58-1.898-1.162-2.875-1.761L427 471v-2l-2.625-.75c-3.586-1.328-6.338-2.936-9.375-5.25v-2l-2.375-.937C410 459 410 459 408 458v-2l-4-1v-2l-2.168-.812c-2.873-1.205-5.465-2.6-8.144-4.188l-2.676-1.562L389 445v-2l-2.25-.875A82 82 0 0 1 380 439v-2l-2.266-.852c-9.616-4.038-18.25-11.69-26.725-17.719a2763 2763 0 0 0-5.27-3.738C334.034 406.318 325.308 398.086 319 385l-2-1c-1.03-26.13-1.03-26.13 5-36 .55-.924 1.1-1.849 1.668-2.8L325 343c4.59 1.28 7.574 2.976 11.188 6.063 3.568 3.055 3.568 3.055 7.812 4.937v2l4 1v2h3l-.07 3.438q-.029 2.28-.055 4.562l-.05 2.254c-.046 5.244.493 9.756 2.175 14.746l3 1 1 2h5v-2l4-4c3.9-5.509 3.726-10.46 3-17-2.89-11.764-16.469-19.078-26-25a201 201 0 0 0-7-4v-2l-2.219-.809c-2.745-1.176-4.868-2.506-7.281-4.253l-2.629-1.88L321 324a1443 1443 0 0 0-6.437-4.5l-1.652-1.15c-4.47-3.09-9.039-5.998-13.669-8.842C297 308 297 308 295.508 306.492c-1.96-1.939-4.12-3.122-6.508-4.492-18.734-11.467-18.734-11.467-21-16a165 165 0 0 1-.098-7.195l.005-2.144c.005-2.262.018-4.524.03-6.786q.008-2.299.014-4.598.017-5.638.049-11.277"/><path fill="#090909" d="M250 237h221v277H250zm14 14v250h193V251z"/><path fill="#040404" d="m752.902 367.734 2.948-.007 3.087.023 3.077-.023 2.95.007 2.708.007C770 368 770 368 773 370c.36 1.987.36 1.987.34 4.45v2.79l-.047 3.018-.013 3.085c-.017 3.261-.054 6.521-.092 9.782q-.024 3.31-.042 6.621-.05 8.127-.146 16.254l2.675-1.68 3.524-2.195 1.757-1.105c10.64-6.605 21.682-7.323 33.907-5.622 10.08 2.476 18.246 9.417 23.77 18.02 6.93 13.089 7.648 30.883 3.367 44.957-3.597 10.736-9.334 18.308-19.094 24.188-7.333 3.627-13.185 4.918-21.406 4.812l-2.723.035c-8.27-.036-14.34-1.992-21.027-6.91l-2.453-1.781c-4.594-3.438-4.594-3.438-6.297-4.719l.105 1.863.082 2.45.106 2.425c-.367 2.835-1.08 3.507-3.293 5.262-1.961.372-1.961.372-4.16.363l-2.404-.002-2.499-.048-2.51.01c-6.16-.056-6.16-.056-8.427-2.323-.252-2.177-.252-2.177-.254-4.935l-.017-3.16.012-3.483-.01-3.656q-.01-4.971 0-9.942c.005-3.464 0-6.928-.002-10.391q-.005-8.726.01-17.453a6208 6208 0 0 0-.003-20.193q-.014-8.66-.006-17.32.007-5.176-.003-10.352c-.006-3.846.003-7.691.014-11.537l-.012-3.482.017-3.161.002-2.758c.525-4.542 3.263-4.433 7.154-4.443"/><path fill="#070707" d="m493.527 249.469 3.15-.016 3.26.047c1.072-.015 2.144-.03 3.249-.047 6.074.03 10.128.274 14.814 4.547 2.473 2.717 3.512 5.095 4.438 8.625.861 3.262 1.933 6.336 3.218 9.45 3.846 9.467 7.015 19.203 10.356 28.856q1.384 3.994 2.773 7.987l.843 2.447A177 177 0 0 0 545 325l.595-1.709 2.717-7.791.936-2.687a567 567 0 0 1 4.981-13.762c1.2-3.195 2.36-6.405 3.524-9.614q1.022-2.819 2.051-5.634a862 862 0 0 0 5.098-14.287l.913-2.597q.849-2.415 1.663-4.84c1.687-4.75 3.522-7.797 7.522-11.079 4.722-1.574 9.492-1.267 14.438-1.312l3.181-.088 3.065-.026 2.798-.044c3.506.654 4.416 1.568 6.518 4.47.602 3.288.536 6.543.502 9.877l.016 3.037c.013 3.313-.004 6.625-.022 9.938q0 3.447.005 6.896 0 7.225-.034 14.45a2790 2790 0 0 0-.013 18.556c.007 4.746-.001 9.492-.014 14.237q-.006 3.422 0 6.845c.002 3.182-.014 6.363-.036 9.545l.014 2.878-.03 2.617-.008 2.28C605 357 605 357 602 359c-2.742.266-2.742.266-5.875.25l-3.117.016C590 359 590 359 585 357l-1-87c-2.438 6.268-2.438 6.268-3.996 12.508-.907 4.355-2.362 8.269-4.067 12.367-3.077 7.66-5.783 15.413-8.375 23.25l-1.145 3.447a1036 1036 0 0 0-5.593 17.389l-1.059 3.335a434 434 0 0 0-1.939 6.279c-2.182 6.83-2.182 6.83-5.146 9.566-3.237 1.038-5.908 1.187-9.305 1.109-1.127-.015-2.253-.03-3.414-.047C537 359 537 359 534 358c-.957-1.871-.957-1.871-1.812-4.437l-1.016-2.981L530 347q-1.134-3.435-2.274-6.867a858 858 0 0 1-1.532-4.674c-1.114-3.397-2.283-6.663-3.71-9.947-1.725-4.083-2.952-8.195-4.172-12.45-3.2-10.926-6.797-21.71-10.446-32.495-.963-2.853-1.914-5.71-2.866-8.567l-.011 3.169q-.056 14.766-.173 29.532c-.04 5.062-.072 10.123-.087 15.184-.015 4.883-.05 9.765-.097 14.647q-.022 2.798-.024 5.594c-.002 2.608-.03 5.215-.062 7.822l.015 2.348c-.102 5.214-.102 5.214-2.418 7.685-2.815 1.338-4.971 1.382-8.08 1.332l-3.09-.012c-3.022-.306-5.197-1.124-7.973-2.301q-.176-20.04-.26-40.081c-.025-6.204-.06-12.407-.117-18.61q-.08-8.978-.097-17.955-.015-3.427-.055-6.856a796 796 0 0 1-.039-9.589l-.054-2.875c.05-6.41.05-6.41 2.99-9.621 2.966-1.592 4.808-1.928 8.16-1.944"/><path fill="#040404" d="m500.063 375.688 2.72-.05 2.627-.001 2.38-.01c2.835.478 4.11 1.423 6.21 3.373.481 2.07.481 2.07.454 4.471l-.001 2.768-.062 2.898-.013 2.671c-.02 3.294-.076 6.587-.128 9.88L514 424h53c-.119-15.049-.119-15.049-.27-30.097q-.014-2.823-.023-5.645l-.046-2.979-.002-2.83-.02-2.462L567 378c3.14-2.094 3.908-2.255 7.492-2.266l2.637-.007 2.746.023 2.723-.023c10.159.03 10.159.03 13.402 3.273.096 1.48.122 2.965.12 4.448l.004 2.911-.01 3.22v3.37c0 3.695-.009 7.39-.016 11.086l-.005 7.664q-.005 9.074-.021 18.147-.015 10.327-.022 20.655-.016 21.25-.05 42.499c-7.675 3.38-7.675 3.38-11.48 3.398l-2.338.012-2.37-.035-2.404.035-2.326-.012-2.087-.01c-2.692-.524-3.995-1.52-5.995-3.388-.481-2.221-.481-2.221-.454-4.839l.001-3.013.062-3.16.013-2.91c.02-3.588.076-7.177.128-10.765L567 444h-53v50c-4.935 2.468-8.525 2.332-13.937 2.313l-2.71.048-2.63.002-2.383.01c-3.343-.533-4.782-1.063-7.34-3.373-.774-3.615-.63-7.214-.568-10.897l-.002-3.4c.004-3.718.043-7.435.082-11.152q.014-3.861.021-7.722c.017-6.088.057-12.176.107-18.264.056-6.931.083-13.862.108-20.793.053-14.258.14-28.515.252-42.772 5.227-2.182 9.448-2.333 15.063-2.312"/><path fill="#050505" d="m637.375 406.813 2.906-.038 2.805-.005 2.564-.013c2.548.264 4.109 1.052 6.35 2.243l.011 2.072c.042 7.139.111 14.276.197 21.414q.043 3.993.063 7.985c.021 3.833.068 7.665.12 11.498l.003 3.587c.122 6.933.875 11.548 4.606 17.444 3.038 2.86 5.71 3.231 9.75 3.438 8.036-.287 14.637-3.842 20.556-9.167 3.37-4.517 2.783-9.778 2.694-15.205l.033-3.736c.026-3.924-.003-7.844-.033-11.767.004-2.667.02-5.332.035-7.999.03-6.522.015-13.042-.035-19.564 3.075-1.626 5.128-2.256 8.625-2.266l2.64-.007 2.735.023 2.734-.023 2.641.007 2.398.007C714 407 714 407 718 409v86c-4.475.895-8.597 1.217-13.125 1.25l-2.168.063c-5.216.038-5.216.038-7.421-1.54-1.666-2.296-1.595-3.655-1.473-6.46l.082-2.45L694 484l-3 2.082-4 2.73-1.965 1.37c-11.554 7.836-23.33 8.347-37.035 6.818-7.027-1.569-13.17-5.863-17.482-11.596-5.74-9.09-6.072-18.912-5.909-29.357q.012-2.092.018-4.186c.015-3.63.054-7.26.098-10.89.042-3.72.06-7.441.08-11.162.042-7.27.11-14.54.195-21.809 3.742-1.87 8.258-1.185 12.375-1.187"/><path fill="#272729" d="M1074 0h6v804h-6z"/><path fill="#282828" d="M0 0h6v804H0z"/><path fill="#050505" d="m786.563 241.813 3.44.019C793 242 793 242 796 243v43h2v-2c5.339-5.523 13.503-8.166 21.063-8.5 7.194.32 15.01 3.151 19.937 8.5 3.9 6.645 6.13 12.144 6.114 19.87v3.579l-.016 3.848-.005 3.951q-.006 5.189-.024 10.377-.014 5.298-.02 10.598Q845.033 346.61 845 357c-4.101 1.757-7.202 2.27-11.687 2.25l-3.45.016C827 359 827 359 825 357c-.258-2.123-.258-2.123-.271-4.782l-.031-3.015-.007-3.273-.076-6.844q-.042-5.401-.071-10.803c-.022-3.472-.061-6.944-.103-10.416v-3.236c-.082-6.234-.745-10.977-3.441-16.631-2.793-2.483-4.636-2.938-8.312-3.562-5.778.88-9.563 4.027-13.268 8.447-2.193 4.81-1.901 9.531-1.932 14.76l-.054 3.408c-.054 3.587-.088 7.173-.121 10.76q-.05 3.651-.104 7.302-.126 8.943-.209 17.885c-3.895 1.655-6.809 2.272-11.062 2.25l-3.098.016C780 359 780 359 776 357V244c4.163-2.082 6.024-2.244 10.563-2.187"/><path fill="#060606" d="M682 282.234c6.86 5.283 9.669 12.48 11 20.766.245 3.002.34 5.99.375 9l.042 2.25c-.046 5.237-.046 5.237-1.651 7.455-2.283 1.674-3.605 1.658-6.421 1.636l-2.85-.001-3.07-.047-3.148-.013c-3.322-.017-6.643-.054-9.965-.092q-3.375-.024-6.751-.042-8.28-.05-16.561-.146l.438 1.828c.185.8.37 1.599.562 2.422l.563 2.39C645 332 645 332 645 336h2l1.813 2.375c3.017 3.62 5.598 4.45 10.246 4.96 7.852.092 14.427-.978 21.882-3.46 2.889-.826 5.08-1.134 8.059-.875 1.802 1.802 1.298 4.377 1.375 6.813-.048 5.795-.048 5.795-2.562 8.812L685 356l-2.187 1.125C668.848 361.47 652.499 362.33 639 356c-2.855-2.016-2.855-2.016-5-4v-2l-1.836-.781c-4.229-2.382-6.476-6.88-7.82-11.448-2.984-14.928-3.884-32.894 4.199-46.337 12.697-17.637 35.106-20.525 53.457-9.2"/><path fill="#080808" d="M756 281c1.382 2.765 1.095 5.046 1.063 8.125l-.028 3.32L757 295c-4.481 1.222-4.481 1.222-6.816.223l-1.746-1.16c-5.735-3.168-12.5-2.93-18.797-1.543L728 293a126 126 0 0 0-.75 4.25l-.422 2.39c-.028 2.477-.028 2.477 1.711 4.481 2.987 2.28 6.082 3.46 9.586 4.692 8.9 3.353 17.306 7.446 21.875 16.187 1.942 5.825 2.102 13.21-.312 18.938L758 347l-1.187 2.625c-4.984 6.53-12.962 9.081-20.813 10.375-8.37.689-16.25.45-24-3l-1.945-.855c-1.68-1.02-1.68-1.02-4.055-4.145-.49-4.379-.347-8.614 0-13 2.316-.613 2.316-.613 5-1a107 107 0 0 1 6 4c6.029 2.74 12.626 2.843 19 1.25 2.473-1.546 3.149-2.463 4-5.25.833-2.957.833-2.957 0-6-3.746-3.62-8.595-5.28-13.437-6.937-8.681-3.035-14.523-6.64-18.688-15.012-2.529-5.927-2.305-11.325-1.312-17.613 2.691-6.437 6.741-10.968 13.125-13.875 11.867-4.701 25.276-4.149 36.312 2.437"/><path fill="#1E1E1E" d="M326.844 417.243c2.525.887 4.401 2.098 6.597 3.628l2.518 1.74 2.604 1.827 2.615 1.814q2.404 1.668 4.8 3.343A315 315 0 0 0 351 433c-1.506 3.988-3.765 5.446-7.312 7.688-1.08.694-2.158 1.39-3.27 2.105l-1.71 1.095c-3.769 2.453-7.429 5.067-11.114 7.643-4.1 2.839-8.258 5.589-12.41 8.35a4211 4211 0 0 0-9.114 6.084c-18.433 12.323-18.433 12.323-26.382 17.473l-3.176 2.058C274 487 274 487 271 488q-.075-6.726-.11-13.452-.015-2.288-.04-4.574a932 932 0 0 1-.045-6.583l-.032-4c.212-3.16.45-4.822 2.227-7.391 2.484-1.832 2.484-1.832 5.75-3.812 6.582-4.076 12.991-8.371 19.375-12.75 6.847-4.69 13.703-9.357 20.633-13.922 2.274-1.475 2.274-1.475 4.297-3.282C325 417 325 417 326.844 417.244"/><path fill="#F9F9F9" d="M806.5 427.188c4.997 3.63 6.856 7.962 8.5 13.812.277 2.798.28 5.566.25 8.375l.023 2.172c-.032 8.899-2.008 15.917-8.273 22.453-4.81 3.42-9.298 3.663-15 3-7.471-1.337-14.174-5.125-19-11-1.433-4.878-1.358-9.448-1.187-14.5l-.092-3.879c.117-9.058.117-9.058 3.213-13.22 8.58-7.795 20.497-13.631 31.566-7.214"/><path fill="#F0F0F0" d="m665 291 2 1v2l1.813.563c3.14 2.063 4.333 4.885 5.187 8.437v7h-31c.996-8.963 1.675-11.051 7-17.375 4.746-2.57 9.71-2.102 15-1.625"/><path fill="#F3F3F3" d="M264 251h179v1H272l2 4-6-2v31h-1v-32l-3-1z"/><path fill="#55A0BF" d="M331 402c5.971 1.327 9.472 2.774 13 8v2h3v2l5 1v2l4-1 3.613 4.59c1.444 1.682 1.444 1.682 4.387 2.41v2h2v2l5 1v2h2v2l1.75.375c3 .833 5.433 1.73 7.563 4.063 2.554 2.365 5.46 3.284 8.687 4.562v2l2.938.813L397 445l1 3-2 1c-2.475-1.114-4.679-2.582-7-4v-2l-2.25-.875A82 82 0 0 1 380 439v-2l-2.266-.852C367.413 431.813 358.096 423.476 349 417l-1.732-1.23c-5.65-4.021-11.139-8.096-16.268-12.77z"/><path fill="#4F9FBF" d="M340 336c4.729.464 8.181 1.08 12 4l1 3c1.838.909 1.838.909 4 1.5 2.188.656 2.188.656 4 1.5l1 3-1 2 1.75.188c4.547 1.642 6.451 5.936 8.5 10.062 2.56 6.022 2.651 12.475.75 18.75l-2 2a390 390 0 0 0-3.062 3.563c-2.84 3.34-2.84 3.34-3.938 4.437-2 .04-4 .043-6 0v-2l5-1v-2l4-4c3.9-5.509 3.726-10.46 3-17-2.689-10.946-14.576-17.661-23.434-23.273-2.15-1.447-3.837-2.817-5.566-4.727"/><path fill="#D6D6D6" d="M843 501h3v3l2 1h-4v7l2 1h-4v-6l-1.562 2.938C838 513 838 513 834.25 513.875L831 514v2l-3-1-2.125-.437L824 514c-1.381-2.763-1.19-4.947-1-8 2-2 2-2 5.438-2.125L832 504h3l1-1q3.5-.062 7 0z"/><path fill="#579DBA" d="M268 254c3.333.75 5.504 1.842 8.313 3.813 3.802 2.612 7.651 4.954 11.687 7.187v2l2.176.777c2.995 1.297 5.372 2.872 8.012 4.786 3.29 2.409 3.29 2.409 6.812 4.437v2l3 1-2 1c-2.348-.89-2.348-.89-5.062-2.25l-2.723-1.328C296 276 296 276 295 273h-3a283 283 0 0 1-5-5c-2.166-1.295-2.166-1.295-4-2v-2l-3.125-.687c-4.175-.919-6.73-3.556-9.875-6.313l.108 2.43q.234 5.442.454 10.882l.17 3.827.147 3.662.143 3.38C271 284 271 284 270 287l3 1-3 1c-2.396-3.594-2.258-6.149-2.195-10.293l.008-2.14c.011-2.251.037-4.503.062-6.755q.016-2.29.027-4.583.035-5.614.098-11.229"/><path fill="#4B9ABC" d="m392 292 2 1c-1.312 2.5-1.312 2.5-3 5h-3v2l-8 2v3c-1.828 1.535-1.828 1.535-4.25 3.063l-2.39 1.535C371 311 371 311 368.843 312.05c-2.414 1.242-4.004 2.977-5.844 4.949l-15-5v-3h-4l-.187-1.875c-.603-2.32-.603-2.32-2.875-3.062L338 303c-1.456-.8-2.893-1.637-4.312-2.5l-2.114-1.281L330 298v-2c7.72 3.754 14.828 8.462 21.773 13.484 3.93 2.865 3.93 2.865 8.583 3.225 2.777-.745 4.59-1.724 6.964-3.326l2.371-1.59c.803-.55 1.607-1.1 2.434-1.668l2.457-1.645c3.423-2.313 6.527-4.52 9.418-7.48a61 61 0 0 1 3.625-2.125c3.126-1.534 3.126-1.534 4.375-2.875"/><path fill="#999" d="M796 231h4v6l4-6 4 1-3 1 3 2c.25 2.563.25 2.563 0 5l-1 1h-7l-3 1 1 44h-2v-43l-11-1 1-3h2v2l3-2c3.04-1.045 3.82-1.06 7 0v-3l-2-1 3-3z"/><path fill="#569EBB" d="m442 446 8 4v34c-3.33-.832-4.843-1.351-7.562-3.125a342 342 0 0 0-7.403-4.691L432 474.312c-.949-.58-1.897-1.162-2.875-1.761L427 471v-2l-4-2c4.567.537 7.241 2.444 11 5a91 91 0 0 0 3.688 1.563c3.027 1.313 4.136 2.162 6.312 4.437 1.654.697 3.32 1.367 5 2l-.219-3.297c-.549-8.58-.93-17.1-.781-25.703l-1.89-.402c-2.46-.697-3.455-1.695-5.11-3.598z"/><path fill="#4C9ABC" d="M328 345c3.664.6 5.727 2.158 8.563 4.5 2.59 2.132 4.23 3.431 7.437 4.5v2l4 1v2h3l-.07 3.438q-.029 2.28-.055 4.562l-.05 2.254c-.046 5.244.493 9.756 2.175 14.746l3 1 1 3c-1.89-.215-1.89-.215-4-1-1.047-2.066-1.047-2.066-1.75-4.562l-.734-2.504L350 378h-2l-1-18-10-4v-3l-4-2v-2h-2v-2h-3z"/><path fill="#E6E6E6" d="M737 499h2q-.466 2.657-.937 5.313l-.528 2.988C737 510 737 510 736 513q-2.719.039-5.437.063l-3.06.035C725 513 725 513 724 512c-.292-2.772-.364-4.414 1.125-6.812C727 504 727 504 729.938 504.125L733 504c2.269-2.419 2.269-2.419 4-5"/><path fill="#DCDCDC" d="M714 500c2.875-.125 2.875-.125 6 0 2 2 2 2 2.375 5.375C722 509 722 509 720.438 511.438c-3.257 2.087-5.648 1.854-9.438 1.562.115-1.418.243-2.834.375-4.25.07-.789.14-1.578.21-2.39.43-2.446 1.201-4.208 2.415-6.36"/><path fill="#DEDEDE" d="M786 500h2v4h5c.125 6.75.125 6.75-1 9h-2l1-8-4 1-1 7h-8q-.118-2.437-.187-4.875l-.106-2.742L778 503l3-2v3h4z"/><path fill="#D6D6D6" d="M584 268h1v88h-1l-1-75-3 1c.539-5.277 1.773-9.256 4-14"/><path fill="#E2E2E2" d="M759.563 503.938 763 504l2 5 1-5h6l-1.937.563c-2.484 1.38-2.484 1.38-2.813 5.062L767 513q-2.97.039-5.937.063l-3.34.035C755 513 755 513 754 512c.855-7.98.855-7.98 5.563-8.062"/><path fill="#61A8C5" d="M319 354c2 2 2 2 2 6h-2l2 26h3l1 8h2a132 132 0 0 1 3 5l2 2h-3c-3.542-3.552-6.082-7.947-8.25-12.437-1.323-3.602-1.323-3.602-3.75-4.563-.058-3.875-.094-7.75-.125-11.625l-.05-3.316c-.062-10.04-.062-10.04 2.175-15.059"/><path fill="#E0F9FC" d="M344 354c3.82.53 6.363 1.11 9 4 .238 3.79.091 7.356-.156 11.133-.235 5.876.69 9.061 4.156 13.867 2.59 1.491 2.59 1.491 5 2v2l-5 1c-6.147-6.795-7.227-11.97-7.168-21.098.158-2.729.558-5.242 1.168-7.902h-3v-2l-4-1z"/><path fill="#51A0BC" d="m291 300 2 1v2h3v2l2.25.375c2.551.58 4.477 1.362 6.75 2.625v3h3l1 2c2.314.73 4.648 1.401 7 2l.313 1.938L317 319l3 1v2l1.813.25c2.784.955 3.62 2.321 5.187 4.75-3.302-1.57-6.353-3.416-9.437-5.375l-2.81-1.773c-2.71-1.823-5.205-3.813-7.753-5.852a576 576 0 0 0-5.234-2.926c-1.81-1.101-3.35-2.318-4.954-3.699-2.279-1.925-4.098-3.227-6.812-4.375z"/><path fill="#4B9ABB" d="M398 415a769 769 0 0 1 5.5 3.375l3.094 1.898L409 422v2l1.746.313c2.624.8 4.182 1.976 6.317 3.687 2.433 1.943 3.94 3.001 6.937 4v2l2.2.773c2.955 1.295 5.106 2.832 7.613 4.852l2.394 1.914L438 443l-2 1c-2.125-.937-2.125-.937-4-2v-2l-2.125-.812c-3.04-1.256-5.948-2.69-8.875-4.188v-2h-2v-2l-1.715-.332-2.223-.48-2.214-.458L411 429l-1-3c-2.504-1.219-2.504-1.219-5-2v-2l-2.375-.687c-3.284-1.642-3.462-2.95-4.625-6.313"/><path fill="#CACACA" d="m838.25 229.75 2.75.25c-.671 4.194-2.856 7.403-5 11h-10l2-1c.407-2.322.744-4.657 1-7l-2-1 4-1v3l1.625-2c2.375-2 2.375-2 5.625-2.25"/><path fill="#3F3F3F" d="m679 500 2 1c.407 2.322.744 4.657 1 7l4-8h3l1 9 4-9h2c-.644 3.012-1.65 5.517-3.062 8.25l-1.098 2.14L691 512h-4l-1-6-4 7h-3z"/><path fill="#499AB7" d="M414 313h-2v2c-2.117 1.508-2.117 1.508-4.875 3.125l-2.742 1.633C402 321 402 321 400 321v2c-1.54 1.148-1.54 1.148-3.625 2.375l-2.2 1.324L392 328c-4.135 2.367-4.135 2.367-7 6l3 1-4 1 1-7 3-1v-3l2.813-.812c3.145-.92 3.145-.92 4.812-2.813L397 320h4l1-3h3v-2c5.625-3.125 5.625-3.125 9-2"/><path fill="#C0E5EF" d="M446 254h5q.474 7.763.812 15.533.125 2.642.289 5.282c.155 2.534.264 5.066.364 7.603l.176 2.374c.148 5.343.148 5.343-2.13 7.84-2.892 2.157-4.82 3.294-8.449 3.68L440 296c3.373-3.662 5.223-5.09 10-7v-34l-4 1z"/><path fill="#929292" d="M771 231c2.375-.125 2.375-.125 5 0l2 2 2-2c2.625-.125 2.625-.125 5 0l-1.937.625c-2.412 1.27-2.412 1.27-2.813 4.5L780 239h4v3l-7 1v-2h-3l-1-5h-2l-1 5c-1-3-1-3 0-6a70 70 0 0 1 4-1l1-2h-3l-1 2z"/><path fill="#424242" d="M844 298h1v59c-4.698 1.88-6.93 2.224-11.812 2.125l-3.52-.055L827 359v-1l14-1-1-3h4z"/><path fill="#EBFCFC" d="m391 328 1 3-3 1 1 3 3 1 1 5 4 1v4h2l2 10-2 1-1.125-3.437c-2.416-6.458-7.548-16.4-13.875-19.563 1.049-2.622 1.65-3.794 4.125-5.25z"/><path fill="#898989" d="M843 501h3v3l2 1h-4v7l2 1h-4v-6l-1.687 3c-2.313 3-2.313 3-5.063 3.375L833 513l4-1v-3l-3-1c.875-3.875.875-3.875 2-5q3.5-.062 7 0z"/><path fill="#363636" d="M813 500c5.75-.125 5.75-.125 8 1l-.562 2.188c-.458 2.94-.173 4.953.562 7.812-3.644 2.43-5.712 2.162-10 2v-5h2v4l4-1 1-4h-5z"/><path fill="#4D9BBB" d="M441 292c-.191 1.797-.191 1.797-1 4-2.215 1.703-2.215 1.703-4.937 3.25l-2.715 1.578C430 302 430 302 428 302v2a92 92 0 0 1-5.5 3.625l-3.094 1.914L417 311l-1-4 1.61-.734c4.206-1.996 7.133-3.892 10.39-7.266 1.329-.352 2.662-.688 4-1l2-3h3v-2c2-1 2-1 4-1"/><path fill="#569FBF" d="M432 266v4l-5.273 1.953c-1.895.93-1.895.93-2.653 3.02-1.47 2.773-2.98 3.147-5.887 4.214l-2.582.981c-2.523.806-4.998 1.369-7.605 1.832 2.035-4.07 6.922-5.485 11-7v-2l2.688-1.25c3.309-1.748 6.61-5.75 10.312-5.75"/><path fill="#C6E7F2" d="M450 451c2.429 3.643 2.257 6.307 2.195 10.512l-.008 2.206c-.011 2.324-.037 4.646-.062 6.97q-.016 2.364-.027 4.728A2346 2346 0 0 1 452 487l-4 1v-4h2z"/><path fill="#3F98B4" d="M268 254c2.304 3.455 2.308 5.006 2.45 9.094l.13 3.62.108 3.786.142 3.785c.306 9.306.306 9.306-.83 12.715l3 1-3 1c-2.396-3.594-2.258-6.149-2.195-10.293l.008-2.14c.011-2.251.037-4.503.062-6.755q.016-2.29.027-4.583.035-5.614.098-11.229"/><path fill="#499ABB" d="M450 255v34l-8 4c1-3 1-3 3.532-4.273 2.792-1.526 2.792-1.526 3.036-4.73l-.08-3.634-.049-3.935q-.062-2.058-.127-4.115a1243 1243 0 0 1-.068-4.15A787 787 0 0 0 448 258l-2.324 1.457C443.028 260.984 441 261.571 438 262c1.862-3.724 7.791-7 12-7"/><path fill="#4E99B5" d="M330 296c6.74 3.278 13.042 7.26 19.125 11.625 4.134 2.95 8.27 5.243 12.875 7.375-3.69 1.371-5.709.6-9.25-.937l-2.703-1.153L348 312v-3h-4l-.187-1.875c-.603-2.32-.603-2.32-2.875-3.062L338 303c-1.456-.8-2.893-1.637-4.312-2.5l-2.114-1.281L330 298z"/><path fill="#CEE5EF" d="M264 251h24v1h-16l2 4-6-2v31h-1v-32l-3-1z"/><path fill="#A9A9A9" d="M820 231c2.625.375 2.625.375 5 1 .362 5.429.362 5.429-1.187 7.875-2.373 1.473-4.072 1.347-6.813 1.125.75-7.75.75-7.75 3-10"/><path fill="#ECECEC" d="M788 232c0 4.33-.966 6.27-3 10l-1-3-4 1c-.625-2.312-.625-2.312-1-5 2-3 2-3 3.938-3.75C785 231 785 231 788 232"/><path fill="#D2F0F5" d="m410 315 2 1-2 4h-4l-.562 1.813c-2.579 3.923-6.972 4.844-11.375 5.875L392 328c2.528-2.799 4.204-4.458 8-5v-2c2.117-1.543 2.117-1.543 4.875-3.187l2.742-1.668z"/><path fill="#4598BF" d="m442 446 8 4v30h-1c-.642-9.678-1.168-19.294-1-29l-1.89-.402c-2.46-.697-3.455-1.695-5.11-3.598z"/><path fill="#2C9EC6" d="m270 257 3 1v2l3 1-2 1v2h-2v16h-2z"/><path fill="#353535" d="M714 500c2.875-.125 2.875-.125 6 0 2 2 2 2 2.375 5.375C722 509 722 509 720.438 511.438c-3.257 2.087-5.648 1.854-9.438 1.562.115-1.418.243-2.834.375-4.25.07-.789.14-1.578.21-2.39.43-2.446 1.201-4.208 2.415-6.36m0 2-1 10c3.032-.328 4.616-.641 6.875-2.75 1.422-2.845 1.037-4.266.125-7.25z"/><path fill="#D2F3F9" d="M403 359h1v23l-4 2 .469-2.945c.725-5.068.906-10.156 1.136-15.266.29-5.685.29-5.685 1.395-6.789"/><path fill="#4A9BBE" d="M340 336c4.729.464 8.181 1.08 12 4l1 3c1.838.909 1.838.909 4 1.5 2.188.656 2.188.656 4 1.5l1 3-2 1-1.187-1.375c-1.729-1.744-1.729-1.744-4.032-2.473-3.332-1.38-6.103-3.202-9.094-5.214l-3.238-2.16L340 337z"/><path fill="#C9EEF4" d="m420 430 7 1 1 3c1.836.945 1.836.945 4 1.563 2.188.69 2.188.69 4 1.437l1 2c2.017 1.134 2.017 1.134 4 2l-1 3c-3.628-1.69-6.907-3.804-10.25-6l-3.266-2.125L424 434v-2l-4-1z"/><path fill="#DDD" d="m514 376 2 1-1 46h-1l-.031-1.657q-.163-8.516-.341-17.032-.066-3.18-.125-6.361-.088-4.566-.187-9.13l-.05-2.885-.06-2.669-.048-2.355c-.046-1.997-.046-1.997-1.158-3.911z"/><path fill="#519CC0" d="M308 281c7.336 1.394 13.506 7.21 19 12-3 1-3 1-5 .25-1.987-1.242-3.351-2.601-5-4.25-2.1-1.176-2.1-1.176-4-2v-2h-5z"/><path fill="#9A9A9A" d="M816 231c.363 6.419.363 6.419-1.25 9-1.75 1-1.75 1-3.937.688L809 240l1-1q.062-3.5 0-7c2-1 2-1 6-1"/><path fill="#6A6A6A" d="M759.563 503.938 763 504l-1 4-6 1c1.255 2.51 2.5 2.871 5 4-2 .043-4 .04-6 0l-1-1c.855-7.98.855-7.98 5.563-8.062"/><path fill="#4B4B4B" d="M568 377h2l-1 3a73 73 0 0 0-.205 4.288l-.06 2.608-.051 2.803-.063 2.88q-.098 4.554-.183 9.108l-.131 6.174q-.16 7.57-.307 15.139h-1q-.037-9.585-.055-19.171-.008-3.264-.02-6.527c-.013-3.12-.018-6.24-.023-9.36l-.015-2.968v-2.73l-.007-2.415C567 378 567 378 568 377"/><path fill="#555" d="M733 504c-.875 3.875-.875 3.875-2 5-1.666.04-3.334.043-5 0 1.255 2.51 2.5 2.871 5 4-2 .043-4 .04-6 0-1-1-1-1-1.25-3.375.25-2.625.25-2.625 1.375-4.437 2.65-1.68 4.807-1.393 7.875-1.188"/><path fill="#3B3B3B" d="M786 500h2v4h5c.125 6.75.125 6.75-1 9h-2l1-8-4 1-1 7h-2z"/><path fill="#519FBF" d="M392 396c-.474 4.264-3.039 6.115-6 9v2c1.792 1.326 1.792 1.326 4 2.563a116 116 0 0 1 4 2.437v1h-5l-1-3c-2.015-.733-2.015-.733-4-1v-6l3-1-1-3c3.75-3 3.75-3 6-3"/><path fill="#919191" d="M843 231h5c1.008 3.208 1.144 4.64-.125 7.813C846 241 846 241 843.313 241.313L841 241l1.938-.875c2.214-.953 2.214-.953 3.062-3.125l-4-1z"/><path fill="#4B4B4B" d="M686 500h3l1 9 4-9h2c-.644 3.012-1.65 5.517-3.062 8.25l-1.098 2.14L691 512h-4l1-11z"/><path fill="#60A5C4" d="M350 359h1l-.07 3.438q-.029 2.28-.055 4.562l-.05 2.254c-.046 5.244.493 9.756 2.175 14.746l3 1 1 3c-1.89-.215-1.89-.215-4-1-1.047-2.066-1.047-2.066-1.75-4.562l-.734-2.504L350 378h-2q.21-3.908.438-7.812l.119-2.237c.187-3.182.43-5.913 1.443-8.951"/><path fill="#303030" d="M801.125 503.875 804 504v4l-6 1v3l4 1h-6c-.125-3.375-.125-3.375 0-7 2-2 2-2 5.125-2.125"/><path fill="#2B2B2B" d="M327.297 417.328 329 418l-2 3v2l-2.25-.25c-3.532.321-4.516 1.603-6.75 4.25l-2-1v-3c1.828-1.64 1.828-1.64 4.25-3.25l2.39-1.64c2.36-1.11 2.36-1.11 4.657-.782"/><path fill="#DCF5FB" d="m318 352 2 2-.96 2.477c-1.191 4.035-1.484 7.718-1.665 11.898l-.117 2.23A794 794 0 0 0 317 376l-2-1a544 544 0 0 1-.187-7.562l-.077-2.135c-.071-5.183.942-8.666 3.264-13.303"/><path fill="#5FA3C3" d="M390 339c4.427 3.921 7.9 8.412 10 14-.367 2.277-.367 2.277-1 4l-2-1v-3h-2l-.812-2.687c-1.061-3.304-1.061-3.304-2.813-6C390 342 390 342 390 339"/><path fill="#919191" d="M804 231c2.125.375 2.125.375 4 1l-3 1 3 2c.25 2.563.25 2.563 0 5-1 1-1 1-3.562 1.063L802 241c-.195-6.055-.195-6.055 0-8z"/><path fill="#6F6F6F" d="M828.125 503.875 831 504v4l-6 1v3l4 1c-1.666.043-3.334.04-5 0-1-1-1-1-1.187-3.937.26-4.269 1.04-5.017 5.312-5.188"/><path fill="#CEF2FA" d="M351 376h2l1.688 3.375c1.565 2.778 2.131 3.53 5.062 5.063L362 385v2l-5 1c-3.71-3.996-5.598-6.37-6-12"/><path fill="#D7D7D7" d="m820 493 2 1c-1.596 2.659-2.542 4.217-5 6-3.69.477-7.152-.07-10.812-.625l-2.967-.371A309 309 0 0 1 796 498v-1l3.219-.113c7.534-.33 13.8-.815 20.781-3.887"/><path fill="#303030" d="M297 436c2 1 2 1 3 3a424 424 0 0 1-3.75 2.938l-2.11 1.652c-2.1 1.384-3.683 1.973-6.14 2.41v-4c1.969-1.703 1.969-1.703 4.5-3.25l2.531-1.578z"/><path fill="#D6F8FB" d="m383 440 6 3v2l2.188.75c3.06 1.36 5.28 3.08 7.812 5.25l-3 1v-2h-4v-2l-5-1v-2h-3z"/><path fill="#C8C8C8" d="M584 268h1v15l-3-2-2 1c.539-5.277 1.773-9.256 4-14"/><path fill="#EDEDED" d="M841 231h1l1 5 3 1-1 3c-2.312.625-2.312.625-5 1l-3-2c1.125-2.972 2.223-5.334 4-8"/><path fill="#DAF7FA" d="M416 463q2.727 1.39 5.438 2.813l3.058 1.582C427 469 427 469 428 472c-3.312.25-3.312.25-7 0-1.937-1.812-1.937-1.812-3-4v-3h-2z"/><path fill="#CDF0F4" d="m426 304 2 1-1 3-2.875.25L421 309l-.937 2-1.063 2c-3.625.75-3.625.75-7 1 4.424-3.71 9.174-6.846 14-10"/><path fill="#549FBB" d="M273 290c3.902.578 5.979 2.583 9 5 2.182.778 2.182.778 4 1v2l4 1-1 3c-11.706-7.114-11.706-7.114-16-12"/><path fill="#DEDEDE" d="M805 230h10c-3 2-3 2-5 2v7l2 1h-3l-.25-2.375c-.478-2.772-.478-2.772-2.812-3.937L804 233z"/><path fill="#DBDADB" d="M798.063 229.938 801 230v9c-2-4-2-4-2-5l-1 3-4-1a100 100 0 0 1 0-5c1-1 1-1 4.063-1.062"/><path fill="#464646" d="M813 500c5.75-.125 5.75-.125 8 1l-1 5h-6l1-5z"/><path fill="#559EBB" d="M320 386h4l1 8h2a132 132 0 0 1 3 5l2 2h-3c-1.5-1.574-1.5-1.574-3-3.687l-1.57-2.208C320 388.582 320 388.582 320 386"/><path fill="#EEE" d="m548 317-3 9c-1.991-2.986-2.941-5.597-4-9 2.667-1.333 4.167-.671 7 0"/><path fill="#D8F6FA" d="M432 266a223 223 0 0 1-3.75 3.063l-2.11 1.722C424 272 424 272 421.735 271.684L420 271l1-4c6.964-2.277 6.964-2.277 11-1"/><path fill="#282828" d="m493.445 249.902 3.262.01 3.418.025 3.441.014q4.218.018 8.434.049v1l-1.956.044c-2.932.075-5.863.171-8.794.268l-3.078.069-2.969.107-2.73.08c-2.886.504-4.232 1.604-6.473 3.432h-2c2.274-5.036 4.072-5.126 9.445-5.098"/><path fill="#D3EFF6" d="M440 296c0 2 0 2-2.062 4.563-3.42 2.837-5.569 3.18-9.938 3.437v-2c2.117-1.508 2.117-1.508 4.875-3.125l2.742-1.633C438 296 438 296 440 296"/><path fill="#757575" d="M741 500h3c-.48 4.714-.968 8.666-3 13h-2a351 351 0 0 1-.125-4.812l-.07-2.708C739 503 739 503 741 500"/><path fill="#DAF5FB" d="M346 415c3.107 1.468 5.905 3.2 8.75 5.125l2.422 1.633L359 423c-3 1-3 1-6.5-.187-3.292-1.705-4.751-2.624-6.5-5.813z"/><path fill="#CCEBF6" d="M399 384h1c.612 7.226.612 7.226-2.375 11-2.625 2-2.625 2-4.625 2v2l-2-1 1.242-1.54c3.15-4.024 5.496-7.412 6.758-12.46"/><path fill="#CEEFF8" d="M348 307h4v2l4-1 2 3c2.563.73 2.563.73 5 1l-1 2c-5.6-.42-9.588-2.686-14-6z"/><path fill="#363636" d="M745 504h2v6h2l2-6h2c-1.059 3.403-2.009 6.014-4 9h-3z"/><path fill="#DBF4FC" d="M368 431c4.615 1.319 8.099 3.214 12 6l-1 3-3-1v-2l-2.312-.312c-2.872-.735-3.918-1.36-5.688-3.688z"/><path fill="#5AA2BC" d="m327 327 7 2v2l5 1 1 4-4-1v-2l-2.25-.75c-2.951-1.341-4.598-2.86-6.75-5.25"/><path fill="#525252" d="M737 499h2q-.466 2.657-.937 5.313l-.528 2.988C737 510 737 510 736 513h-2q.462-3.22.938-6.437l.527-3.622C736 500 736 500 737 499"/><path fill="#252525" d="M306 457h4v2l3 1-5 5-3-1 2-2-2-2z"/><path fill="#CCF1F9" d="m391 328 1 3-3 1 1.063 1.813C391 336 391 336 390 339l-5-5c1.049-2.622 1.65-3.794 4.125-5.25z"/><path fill="#4EA1C0" d="m388 325 5 1-8 8 3 1-4 1 1-7 3-1z"/><path fill="#DCDCDC" d="M842 505c1.089 2.831.961 4.165.25 7.188L841 515l-3 1v-2h-5v-1l2.25-.062c3.178-1.084 3.478-1.683 5.063-4.5z"/><path fill="#5A9FBD" d="m438 477 12 3v4c-3.191-.633-5.512-1.756-8.25-3.5l-2.14-1.344L438 478z"/><path fill="#D7F5FB" d="M351 344c4.275 2.748 8.141 5.693 12 9-2 1-2 1-4.562.188C356 352 356 352 355 350l-3-1z"/><path fill="#EAEAEA" d="M694 484v9l-2 1-1-5-3-1c3.75-4 3.75-4 6-4"/><path fill="#559FC5" d="m366 381 1 2c-2.444 5.444-2.444 5.444-4 7-2 .04-4 .043-6 0v-2l5-1v-2a91 91 0 0 1 4-4"/><path fill="#D7F6FB" d="M316 321c4.108 1.45 7.469 3.454 11 6v1c-3.6.424-5.06-.033-8.312-1.812L316 324z"/><path fill="#353535" d="m780 501 1 3 3 1h-3l-1 7 2 1h-4a365 365 0 0 1-.125-4.875l-.07-2.742C778 503 778 503 780 501"/><path fill="#CAEEF6" d="M321 389c2.176 2.849 4.21 5.76 6.188 8.75l1.605 2.422L330 402c-2.45-.867-2.45-.867-5-2-.812-2.125-.812-2.125-1-4h-2z"/><path fill="#E4FBFA" d="M364 379h3c-.75 2.438-.75 2.438-2 5-1.812.938-1.812.938-4 1-2.75-.937-2.75-.937-5-2 3.75-1.125 3.75-1.125 6 0z"/><path fill="#5EA3C1" d="m325 343 3 1-2 2a126 126 0 0 0-2 6h-2v2h-2c1.225-4.053 2.699-7.444 5-11"/><path fill="#4999B8" d="M295 273c3.487 1.11 6.775 2.263 10 4v2l3 1-2 1c-2.348-.89-2.348-.89-5.062-2.25l-2.723-1.328C296 276 296 276 295 273"/><path fill="#B4B4B4" d="m812 504 1 3h5l-1 5h-4z"/><path fill="#D6F5F7" d="M409 423c1.46.087 2.918.195 4.375.313l2.46.175C418 424 418 424 420 427l-1 3-1.426-1.023-1.887-1.352-1.863-1.336A215 215 0 0 0 409 423"/><path fill="#C8EDF8" d="M389 400c1.044 3.133.934 3.99 0 7h2v3l-5-2c0-4.268.376-4.939 3-8"/><path fill="#4199BD" d="M348 309c3.389.689 6.18 1.987 9.25 3.563l2.703 1.378L362 315c-3.69 1.371-5.709.6-9.25-.937l-2.703-1.153L348 312z"/><path fill="#D2F2F9" d="M384 298c-2.303 2.541-4.673 4.071-7.687 5.688l-2.45 1.324L372 306v-3l5-1v-3c2.463-1.231 4.28-1.072 7-1"/><path fill="#E6E6E6" d="m791 505-1 8-4-1c.375-2.937.375-2.937 1-6 2-1 2-1 4-1"/><path fill="#E5E5E5" d="M821 502c2.603 2.712 2.995 3.891 3.188 7.75L824 513l-4 1 1-7-2-1z"/><path fill="#E0E0E0" d="m315 459 2 3c-1 2-1 2-3.937 3.063L310 466l-2 1-2-2z"/><path fill="#3C3C3C" d="M840 354h4c-.312 1.938-.312 1.938-1 4-3.422 1.14-6.087 1.098-9.687 1.063l-3.575-.028L827 359v-1l14-1z"/><path fill="#2F2F2F" d="M835 504h5l-4 1 1.563 1.75C839 509 839 509 838.688 511.25L838 513h-5l4-1v-3l-3-1z"/><path fill="#414141" d="M766 504h6l-1.937.563c-2.484 1.38-2.484 1.38-2.813 5.062L767 513h-2c-.125-6.75-.125-6.75 1-9"/><path fill="#C7EEF9" d="M440 444c2.75-.25 2.75-.25 6 0 2.375 2 2.375 2 4 4l-1 2-9-5z"/><path fill="#589DBA" d="M450 255v2c-7.286 4.429-7.286 4.429-12 5 1.862-3.724 7.791-7 12-7"/><path fill="#D8D8D8" d="M844 505h3c.625 2.313.625 2.313 1 5l-2 3-2-1z"/><path fill="#D1D1D1" d="m834 482 2 3-4.492 3.71c-1.219 1.043-2.375 2.157-3.508 3.29-2.125-.375-2.125-.375-4-1l1.68-1.207 2.195-1.606 2.18-1.582c2.175-1.638 2.175-1.638 3.945-4.605"/><path fill="#D0F6F8" d="M429 472q2.224 1.178 4.438 2.375l2.496 1.336C438 477 438 477 439 479c-3.936-.562-6.792-1.617-10-4z"/><path fill="#549ABA" d="m396 386 2 1c-.472 4.248-2.967 6.2-6 9v-4h2l.438-1.875C395 388 395 388 396 386"/><path fill="#D8F8FD" d="m394 343 3 1v3l3 1c.73 1.848.73 1.848 1.188 4.063l.48 2.222L402 356l-2 1-1.312-3.625c-1.341-3.587-2.906-6.981-4.688-10.375"/><path fill="#50A7C7" d="m366 310 3 2-6 5-1-2-3-1z"/><path fill="#D2F3F8" d="M338 300h5l1 3h3l1 4c-3.58-1.652-6.78-3.731-10-6z"/><path fill="#57A3BF" d="m398 415 11 7c-4 1-4 1-6.625-.125C400 420 400 420 398 415"/><path fill="#D2F3F9" d="M333 347h5v2l6 2v3c-3.123-.608-5.193-1.62-7.75-3.5l-1.86-1.344L333 348z"/><path fill="#5DA4C4" d="M328 345c3.153.607 5.189 1.642 7.75 3.563l1.86 1.378L339 351c-3.75 1.125-3.75 1.125-6 0v-2h-2v-2h-3z"/><path fill="#D0F1FB" d="M288 301c1.341.757 2.673 1.531 4 2.313l2.25 1.3L296 306v3c-3.785-.54-5.592-2.076-8-5z"/><path fill="#CDF2F7" d="m411 276 3 1c-2 3-2 3-5 4-1.667 1.5-1.667 1.5-3 3l-1-4h3v-2z"/><path fill="#55A7BF" d="M389 444h7l2 4-2 1c-2.475-1.114-4.679-2.582-7-4z"/><path fill="#59A4C2" d="m392 292 2 1c-1.062 2.5-1.062 2.5-3 5-3.687.313-3.687.313-7 0 2.615-2.12 5.196-4.13 8-6"/><path fill="#D5F2F5" d="M289 264h2v2l4 1 1 4c-2.972-1.125-5.334-2.223-8-4z"/><path fill="#6E6E6E" d="M828 231h3v10h-5l2-1c.407-2.322.744-4.657 1-7l-2-1z"/><path fill="#E8E8E8" d="m690 501 3 1a129 129 0 0 1-2 7l-2 1c-.125-6.75-.125-6.75 1-9"/><path fill="#EDEDED" d="M681 501h3c1 3 1 3-.437 6.188L682 510h-1z"/><path fill="#55A3C4" d="m291 300 2 1v2h3v2h2v2h2l-1 2-2.25-1.875c-2.238-1.73-4.187-2.986-6.75-4.125z"/><path fill="#C8EFF6" d="M321 288c3.788.526 6.172 1.381 9 4v2c-2.962-.613-4.38-1.254-7-3v-2z"/><path fill="#2A2A2A" d="m719 501 3 1c.492 6.4.492 6.4-2 9.438L718 513c0-3 0-3 2-6-.315-3.142-.315-3.142-1-6"/><path fill="#EFEFEF" d="m739 501 2 1-1 2c-.04 2-.043 4 0 6h-3c.875-7.875.875-7.875 2-9"/><path fill="#D5D5D5" d="m787 496 4 1-2 6 3 1h-4v-4h-2z"/><path fill="#D3F1F9" d="m311 281 5 1v2l4 1-1 3a962 962 0 0 1-4-2.937l-2.25-1.653L311 282z"/><path fill="#E6E6E6" d="M827 233h2l-1 7-3 1-1-3c1.438-2.125 1.438-2.125 3-4zM820 493l2 1c-1.625 2.063-1.625 2.063-4 4-3.25-.25-3.25-.25-6-1l4-2 2.125-1.187z"/><path fill="#CDF5F9" d="m400 416 5 1v2l4 1v2c-3.937-1.312-6.227-2.92-9-6"/><path fill="#63A1BF" d="m342 411 5 1v2l5 1v3c-3.58-1.652-6.78-3.731-10-6z"/><path fill="#47A2C4" d="m441 292-1 4-7 1 1-2h3v-2c2-1 2-1 4-1"/><path fill="#303030" d="M823 506h2v2l2 1h-2v3l4 1c-1.666.043-3.334.04-5 0-1-1-1-1-1.062-4.062z"/><path fill="#919191" d="M799 505h4l1 3-6 1z"/><path fill="#2C2C2C" d="M686 501h2v5h-2c-1.625 1.458-1.625 1.458-3 3 .547-3.375 1.055-5.082 3-8"/><path fill="#4096BA" d="M435 474c5.538.492 5.538.492 7.875 3.063L444 479c-3.147-.7-6.026-1.76-9-3z"/><path fill="#272727" d="M288 442h5l-2 4-4-1z"/><path fill="#4F9DB9" d="M405 423c6.4.492 6.4.492 9.438 3.063L416 428c-4.128-.607-7.332-2.038-11-4z"/><path fill="#959595" d="M668 510h2v3h-4l-1 2v-2h-3v-2c1.207.03 1.207.03 2.438.063 2.496.233 2.496.233 3.562-1.063"/><path fill="#DCDCDC" d="m804 509-2 4-4-1v-3c3.75-1.125 3.75-1.125 6 0"/><path fill="#323232" d="m347 431 4 2-2 4h-2v-3l-2-1h2z"/><path fill="#232323" d="m327 419 5 1v3l-6-2z"/><path fill="#449CBA" d="M392 396c-.25 1.875-.25 1.875-1 4-2.062 1.25-2.062 1.25-4 2l-1-3c3.75-3 3.75-3 6-3"/><path fill="#D6F0F9" d="M344 354c4.75.75 4.75.75 7 3l-1 2h-2v-2l-4-1z"/><path fill="#D8EDFB" d="m368 305 4 1c-2.363 2.526-3.665 3.888-7 5l-1-3 4-2z"/><path fill="#60A7C4" d="M273 290c3.871.574 6.082 2.487 9 5l-1 2a962 962 0 0 1-4-2.937l-2.25-1.653L273 291z"/><path fill="#DBF5FA" d="M400 288c-5.75 4-5.75 4-8 4 .313-1.937.313-1.937 1-4 3.133-1.044 3.99-.934 7 0"/><path fill="#2C2C2C" d="M754 507h2l.25 1.875c.563 2.31.563 2.31 2.813 3.375L761 513c-2 .043-4 .04-6 0-1-1-1-1-1.062-3.562z"/><path fill="#989898" d="M699 505h4l1 3c-3.75 1.125-3.75 1.125-6 0z"/><path fill="#D1D1D1" d="M815 502h4l-1 4h-4z"/><path fill="#CFCFCF" d="m769 484 4 2-1 2h-2v5h-1z"/><path fill="#459BB1" d="m386 440 5 1v2l2 1-6-1z"/><path fill="#3E97C3" d="m385 335 3 1-1 5-3-1z"/><path fill="#CFF2F6" d="m268 286 7 6c-3 1-3 1-6 0z"/></svg>